<?xml version="1.0" encoding="UTF-8"?>
<svg version="1.1" xmlns="http://www.w3.org/2000/svg" width="300" height="303">
<path d="M0 0 C99 0 198 0 300 0 C300 99.99 300 199.98 300 303 C201 303 102 303 0 303 C0 203.01 0 103.02 0 0 Z " fill="#04223A" transform="translate(0,0)"/>
<path d="M0 0 C33.97705814 -1.00486678 66.6404492 14.08547661 91.4453125 36.390625 C106.65754457 50.86021267 118.45846184 70.18951111 124.92578125 90.125 C125.16844727 90.85734863 125.41111328 91.58969727 125.66113281 92.34423828 C132.79778567 114.94363901 133.42269337 144.54477797 125.92578125 167.125 C125.5071582 168.40068848 125.5071582 168.40068848 125.08007812 169.70214844 C121.19416051 181.22377041 116.42471674 191.84078027 109.92578125 202.125 C109.26578125 202.125 108.60578125 202.125 107.92578125 202.125 C107.53422852 201.44211914 107.14267578 200.75923828 106.73925781 200.05566406 C104.88677989 196.82761584 103.03185153 193.6009834 101.17578125 190.375 C100.8399704 189.79097412 100.50415955 189.20694824 100.15817261 188.60522461 C95.03242619 179.69694231 89.81596246 170.85068865 84.43261719 162.09472656 C83.96758789 161.3312793 83.50255859 160.56783203 83.0234375 159.78125 C82.61617432 159.11931641 82.20891113 158.45738281 81.78930664 157.77539062 C80.92578125 156.125 80.92578125 156.125 80.92578125 154.125 C79.92160156 154.53492188 78.91742188 154.94484375 77.8828125 155.3671875 C76.50158012 155.91216354 75.1200532 156.45639347 73.73828125 157 C73.08408203 157.26941406 72.42988281 157.53882813 71.75585938 157.81640625 C65.313923 160.31990759 58.7566721 161.24176891 51.92578125 162.125 C66.25687128 186.6720499 66.25687128 186.6720499 80.75170898 211.12231445 C81.71442553 212.76447785 82.60948006 214.44613228 83.484375 216.13671875 C84.78605435 218.29971954 84.78605435 218.29971954 87.1875 219.05078125 C87.98800781 219.17839844 88.78851563 219.30601562 89.61328125 219.4375 C90.82564453 219.64826172 90.82564453 219.64826172 92.0625 219.86328125 C92.67738281 219.94964844 93.29226562 220.03601563 93.92578125 220.125 C90.18750963 228.374359 82.28813822 233.32831288 74.92578125 238.125 C74.178125 238.61742187 73.43046875 239.10984375 72.66015625 239.6171875 C58.99518333 248.21589495 44.69387082 253.82009891 28.92578125 257.125 C27.16814453 257.49431641 27.16814453 257.49431641 25.375 257.87109375 C5.79464371 261.14577848 -14.94683686 260.34113531 -34.07421875 255.125 C-35.70423828 254.691875 -35.70423828 254.691875 -37.3671875 254.25 C-57.47098941 248.17273734 -74.31702764 236.88219111 -89.07421875 222.125 C-86.80401773 221.14434513 -84.53309621 220.1654231 -82.26171875 219.1875 C-81.61912109 218.90970703 -80.97652344 218.63191406 -80.31445312 218.34570312 C-77.5878416 217.1731189 -74.89153229 216.06410451 -72.07421875 215.125 C-71.37099819 213.81057881 -70.70846715 212.47405566 -70.07421875 211.125 C-67.79855348 208.42971116 -65.26520909 205.98349024 -62.76171875 203.5 C-61.68410278 202.42975586 -61.68410278 202.42975586 -60.5847168 201.33789062 C-33.29737013 174.6394795 3.16672997 160.23692489 40.48828125 154.625 C61.63904256 151.42144235 81.40748861 145.81521336 95.00390625 128.00390625 C100.0786477 120.40210859 104.29746705 112.17119003 105.92578125 103.125 C105.39210937 103.76566406 104.8584375 104.40632813 104.30859375 105.06640625 C97.00653814 113.54336008 89.38924108 119.13250676 79.36328125 123.9375 C78.46198486 124.37292114 78.46198486 124.37292114 77.54248047 124.81713867 C68.51930291 128.94616227 59.08204444 129.60791257 49.30078125 130.5 C16.42985833 133.74024045 -15.42039521 139.55146046 -42.07421875 160.125 C-43.06421875 160.785 -44.05421875 161.445 -45.07421875 162.125 C-43.78824323 157.85102254 -42.14994156 154.30287107 -39.82421875 150.5 C-37.50929741 146.6228618 -35.347522 142.75456668 -33.38671875 138.6875 C-30.21082714 132.21840152 -26.63264099 126.00654119 -23.03393555 119.7668457 C-20.11737389 114.7067923 -17.23187524 109.63232881 -14.39453125 104.52734375 C-13.77900391 103.42028076 -13.16347656 102.31321777 -12.52929688 101.17260742 C-11.34014256 99.02987698 -10.15378448 96.88559147 -8.97070312 94.73950195 C-5.59869986 88.67137502 -2.03268368 82.82905666 1.92578125 77.125 C4.78395984 80.55051629 7.14194721 84.00583362 9.3515625 87.87890625 C9.98384766 88.98169922 10.61613281 90.08449219 11.26757812 91.22070312 C11.91791016 92.36474609 12.56824219 93.50878906 13.23828125 94.6875 C14.52575971 96.93896334 15.81351888 99.19026618 17.1015625 101.44140625 C17.7301416 102.54500488 18.3587207 103.64860352 19.00634766 104.78564453 C20.31206229 107.05727576 21.62745033 109.31807533 22.96630859 111.56982422 C23.60648926 112.64893066 24.24666992 113.72803711 24.90625 114.83984375 C25.48656982 115.80913818 26.06688965 116.77843262 26.66479492 117.77709961 C27.92578125 120.125 27.92578125 120.125 27.92578125 122.125 C29.86517578 121.9084375 29.86517578 121.9084375 31.84375 121.6875 C41.58506113 120.63534837 51.11727749 119.80282287 60.92578125 120.125 C56.15168216 111.44020273 51.35845394 102.7735689 46.30078125 94.25 C41.86703896 86.77436924 37.54264267 79.23811318 33.23828125 71.6875 C27.82552601 62.19387523 22.39224301 52.71282886 16.92578125 43.25 C11.90271705 34.55468267 6.89257814 25.85259837 1.92578125 17.125 C-0.82839973 19.58397976 -2.41699933 22.25724159 -4.19140625 25.48046875 C-4.79170654 26.56569824 -5.39200684 27.65092773 -6.01049805 28.76904297 C-6.65686378 29.95012664 -7.30310079 31.13128077 -7.94921875 32.3125 C-8.62177599 33.53292196 -9.29471398 34.75313417 -9.96801758 35.97314453 C-14.82261409 44.78336229 -19.60065573 53.63479125 -24.37304688 62.48974609 C-28.28180645 69.71999446 -32.31841727 76.86800624 -36.41918945 83.99072266 C-41.14967493 92.218793 -45.7555178 100.51398915 -50.35571289 108.81542969 C-54.67949665 116.61736392 -59.02393805 124.40730722 -63.38671875 132.1875 C-67.29563961 139.15946981 -71.1978427 146.13487927 -75.07421875 153.125 C-84.33933064 169.82963354 -93.69866251 186.48214753 -103.07421875 203.125 C-108.48320737 201.32200379 -110.54464913 195.04942403 -113.07080078 190.17480469 C-128.77548346 158.09292737 -130.51272993 120.64997755 -119.1105957 87.03051758 C-111.95120329 67.16773664 -100.54307809 51.28172314 -86.07421875 36.125 C-85.51476562 35.51785156 -84.9553125 34.91070312 -84.37890625 34.28515625 C-83.07421875 33.125 -83.07421875 33.125 -81.07421875 33.125 C-81.07421875 32.465 -81.07421875 31.805 -81.07421875 31.125 C-59.17270939 11.00477474 -29.07209689 1.75199077 0 0 Z " fill="#F9F8F7" transform="translate(147.07421875,21.875)"/>
<path d="M0 0 C99 0 198 0 300 0 C300 99.99 300 199.98 300 303 C201 303 102 303 0 303 C0 203.01 0 103.02 0 0 Z M38.875 56.75 C18.28514086 82.35533764 4.50908855 113.80015382 4 147 C3.96132813 148.29035156 3.92265625 149.58070313 3.8828125 150.91015625 C3.2390071 179.64697018 10.75546418 210.64011116 28 234 C29.06347656 235.48306641 29.06347656 235.48306641 30.1484375 236.99609375 C37.04543175 246.44763438 37.04543175 246.44763438 45 255 C45.66 255 46.32 255 47 255 C47.22042969 255.56332031 47.44085938 256.12664062 47.66796875 256.70703125 C58.54317547 275.42769501 90.37160582 287.74542223 110.25 293.6875 C112.15921996 294.15643122 114.07724748 294.59007307 116 295 C116.62197266 295.13535156 117.24394531 295.27070313 117.88476562 295.41015625 C155.02601911 303.1961414 195.93622247 296.78214524 228.05786133 276.30737305 C235.39651688 271.44702694 242.66975138 266.12984969 249 260 C249 259.34 249 258.68 249 258 C249.99 257.67 250.98 257.34 252 257 C254.07874398 254.79388372 254.07874398 254.79388372 256.1875 252.0625 C257.38246094 250.56009766 257.38246094 250.56009766 258.6015625 249.02734375 C259.78878906 247.52880859 259.78878906 247.52880859 261 246 C261.68835938 245.17628906 262.37671875 244.35257813 263.0859375 243.50390625 C281.63526861 221.17872315 291.26496439 193.62520846 294 165 C294.07976074 164.20577637 294.15952148 163.41155273 294.24169922 162.59326172 C295.26298709 151.85074357 294.94781092 141.63317024 293 131 C292.78778809 129.794646 292.78778809 129.794646 292.57128906 128.56494141 C285.21883983 88.23347093 264.2156122 54.07643579 230.72338867 30.43725586 C224.05485505 25.86577283 217.13203376 22.1442529 209.77685547 18.80664062 C208.18662493 18.08472228 206.6098573 17.3333176 205.03515625 16.578125 C148.23579827 -9.23252295 78.72207248 10.37571596 38.875 56.75 Z " fill="#F9F8F7" transform="translate(0,0)"/>
<path d="M0 0 C1 2 1 2 0.25 4.87109375 C-2.59686914 12.99356727 -5.90046157 19.98239193 -11 27 C-11.44859375 27.63292969 -11.8971875 28.26585937 -12.359375 28.91796875 C-22.48924201 41.93782723 -38.42636275 48.92477615 -54.30859375 51.48046875 C-55.94848362 51.75547631 -57.58820758 52.0314747 -59.2277832 52.30834961 C-60.07893707 52.45126434 -60.93009094 52.59417908 -61.80703735 52.74142456 C-84.35366357 56.56489501 -105.39740414 61.85120457 -126 72 C-126.9890332 72.48122314 -126.9890332 72.48122314 -127.99804688 72.97216797 C-146.71569044 82.17672346 -161.53268339 95.13931224 -176 110 C-176.33 109.34 -176.66 108.68 -177 108 C-176.26245117 105.93139648 -176.26245117 105.93139648 -175.04296875 103.37109375 C-174.59493896 102.4265332 -174.14690918 101.48197266 -173.68530273 100.50878906 C-173.19102783 99.49526367 -172.69675293 98.48173828 -172.1875 97.4375 C-171.68484619 96.40206055 -171.18219238 95.36662109 -170.66430664 94.29980469 C-163.85601778 80.45019086 -157.0526239 67.92259303 -146 57 C-145.15695313 56.13632813 -144.31390625 55.27265625 -143.4453125 54.3828125 C-121.49747717 32.9959442 -81.53264021 29.17340893 -52.8125 26.875 C-33.68158577 25.32426113 -15.90397892 18.20124307 -2.9375 3.5625 C-1.94975116 2.38212894 -0.96716538 1.19729476 0 0 Z " fill="#317CA7" transform="translate(253,124)"/>
<path d="M0 0 C1 2 1 2 0.25 4.87109375 C-2.59686914 12.99356727 -5.90046157 19.98239193 -11 27 C-11.44859375 27.63292969 -11.8971875 28.26585937 -12.359375 28.91796875 C-22.48927478 41.93786935 -38.42634718 48.92470125 -54.30859375 51.48046875 C-55.94864511 51.7555655 -57.58853187 52.03164493 -59.22827148 52.30859375 C-60.0794455 52.45151855 -60.93061951 52.59444336 -61.80758667 52.74169922 C-81.67531371 56.10950915 -100.96125089 60.11268888 -119.22241211 68.95507812 C-123.70489276 71.09836908 -123.70489276 71.09836908 -127 70 C-121.14534664 62.41063454 -110.70529001 60.42987 -101.90234375 57.67578125 C-99.97855868 57.04546265 -99.97855868 57.04546265 -98.21264648 56.04541016 C-93.78508024 53.95351579 -88.87780283 53.15503939 -84.125 52.0625 C-82.97491455 51.79671143 -81.8248291 51.53092285 -80.63989258 51.25708008 C-70.50414482 48.98401265 -60.35579284 47.46829172 -50.04443359 46.27099609 C-47.84236224 46.0078684 -47.84236224 46.0078684 -45.08203125 45.36328125 C-43 45 -43 45 -40 46 C-40 45.34 -40 44.68 -40 44 C-38.7625 43.7525 -37.525 43.505 -36.25 43.25 C-32.42120727 42.31812452 -30.65536529 40.95040587 -28 38 C-27.01 38 -26.02 38 -25 38 C-24.731875 37.195625 -24.46375 36.39125 -24.1875 35.5625 C-23.795625 34.716875 -23.40375 33.87125 -23 33 C-22.01 32.67 -21.02 32.34 -20 32 C-19.484375 31.484375 -18.96875 30.96875 -18.4375 30.4375 C-17.963125 29.963125 -17.48875 29.48875 -17 29 C-16.34 29 -15.68 29 -15 29 C-14.9175 28.21625 -14.835 27.4325 -14.75 26.625 C-14.37875 25.325625 -14.37875 25.325625 -14 24 C-12.66666667 23.33333333 -11.33333333 22.66666667 -10 22 C-9.13970066 19.20402714 -9 16.92828926 -9 14 C-10.65 14.33 -12.3 14.66 -14 15 C-13.0409375 14.071875 -13.0409375 14.071875 -12.0625 13.125 C-7.85331938 8.92798464 -3.95343601 4.43577243 0 0 Z " fill="#21597E" transform="translate(253,124)"/>
<path d="M0 0 C1.24546405 2.49092811 0.7767578 3.41080733 0 6 C1.32 5.34 2.64 4.68 4 4 C3.154375 4.94875 2.30875 5.8975 1.4375 6.875 C-5.03641138 14.45250504 -10.21459249 22.74780291 -14.9375 31.5 C-15.45763672 32.44617188 -15.97777344 33.39234375 -16.51367188 34.3671875 C-19.39629089 39.69663925 -21.88257018 45.02032128 -24.08129883 50.6628418 C-26.7223736 57.38168548 -28.55566964 61.6543812 -35.25 65.1875 C-38.9124689 66.68190117 -41.23613997 67.40696673 -45 66 C-44.06220703 65.65001953 -44.06220703 65.65001953 -43.10546875 65.29296875 C-40.3497552 63.60068455 -40.18191591 62.38995633 -39.3125 59.3125 C-33.86238844 43.06819861 -21.86999436 28.48117697 -11.0390625 15.46875 C-6.97996744 10.55429009 -3.13051931 5.56536766 0 0 Z " fill="#001020" transform="translate(104,176)"/>
<path d="M0 0 C1 2 1 2 0.25 4.87109375 C-2.59686914 12.99356727 -5.90046157 19.98239193 -11 27 C-11.44859375 27.63292969 -11.8971875 28.26585937 -12.359375 28.91796875 C-20.63542273 39.55512421 -33.26981399 46.27370183 -46 50 C-48.28452807 50.27580863 -50.57818383 50.4843786 -52.875 50.625 C-54.02742187 50.69976562 -55.17984375 50.77453125 -56.3671875 50.8515625 C-57.23601562 50.90054688 -58.10484375 50.94953125 -59 51 C-58.67 50.01 -58.34 49.02 -58 48 C-55.56421213 47.46969932 -53.12694025 46.95047688 -50.6875 46.4375 C-49.65206055 46.21030273 -49.65206055 46.21030273 -48.59570312 45.97851562 C-45.24455934 45.28238431 -43.30465928 44.89844691 -40 46 C-40 45.34 -40 44.68 -40 44 C-38.7625 43.7525 -37.525 43.505 -36.25 43.25 C-32.42120727 42.31812452 -30.65536529 40.95040587 -28 38 C-27.01 38 -26.02 38 -25 38 C-24.731875 37.195625 -24.46375 36.39125 -24.1875 35.5625 C-23.795625 34.716875 -23.40375 33.87125 -23 33 C-22.01 32.67 -21.02 32.34 -20 32 C-19.484375 31.484375 -18.96875 30.96875 -18.4375 30.4375 C-17.963125 29.963125 -17.48875 29.48875 -17 29 C-16.34 29 -15.68 29 -15 29 C-14.9175 28.21625 -14.835 27.4325 -14.75 26.625 C-14.5025 25.75875 -14.255 24.8925 -14 24 C-12.66666667 23.33333333 -11.33333333 22.66666667 -10 22 C-9.13970066 19.20402714 -9 16.92828926 -9 14 C-10.65 14.33 -12.3 14.66 -14 15 C-13.0409375 14.071875 -13.0409375 14.071875 -12.0625 13.125 C-7.85331938 8.92798464 -3.95343601 4.43577243 0 0 Z " fill="#1C5A81" transform="translate(253,124)"/>
<path d="M0 0 C-2.54150013 2.54150013 -4.61224381 2.89843626 -8.0625 3.875 C-12.95016855 5.32239798 -17.53496921 6.96657023 -22.14453125 9.1328125 C-24 10 -24 10 -26.6875 11 C-29.21654015 12.00968865 -29.21654015 12.00968865 -32.0625 14.0625 C-34.63908594 15.7619503 -36.08788607 16.39252677 -39 17 C-34.8188094 11.23775534 -30.74307925 8.39204705 -24.1875 5.75 C-23.43146484 5.42515625 -22.67542969 5.1003125 -21.89648438 4.765625 C-6.37431534 -1.79788381 -6.37431534 -1.79788381 0 0 Z " fill="#439CCB" transform="translate(152,161)"/>
<path d="M0 0 C-1 3 -1 3 -3.01171875 4.25390625 C-4.33623047 4.90166016 -4.33623047 4.90166016 -5.6875 5.5625 C-11.30977151 8.47311238 -16.28074107 11.93944768 -21.31518555 15.74829102 C-25.6912649 19 -25.6912649 19 -29 19 C-26.85177953 15.7776693 -25.2725249 14.91562433 -22 13 C-21.443125 12.443125 -20.88625 11.88625 -20.3125 11.3125 C-19.879375 10.879375 -19.44625 10.44625 -19 10 C-18.34 10 -17.68 10 -17 10 C-17 9.34 -17 8.68 -17 8 C-16.01 8 -15.02 8 -14 8 C-13.76152344 7.39800781 -13.52304688 6.79601562 -13.27734375 6.17578125 C-11.71552902 3.51544239 -10.25583679 2.65136614 -7.5625 1.1875 C-6.78003906 0.74792969 -5.99757813 0.30835938 -5.19140625 -0.14453125 C-3 -1 -3 -1 0 0 Z " fill="#185177" transform="translate(124,195)"/>
<path d="M0 0 C0.66 0.33 1.32 0.66 2 1 C-0.44477337 3.81395056 -2.98010322 5.07897661 -6.375 6.5625 C-7.31085938 6.97628906 -8.24671875 7.39007813 -9.2109375 7.81640625 C-13.48332072 9.62947644 -17.40935689 11.23489281 -22 12 C-23.010625 12.20625 -24.02125 12.4125 -25.0625 12.625 C-30.45153899 13.13824181 -35.63110229 12.57303506 -41 12 C-41 11.67 -41 11.34 -41 11 C-40.4016333 10.93530518 -39.8032666 10.87061035 -39.18676758 10.80395508 C-26.04910446 9.33412145 -14.56930795 7.57584405 -2.78125 1.28125 C-1.8634375 0.8584375 -0.945625 0.435625 0 0 Z " fill="#15507B" transform="translate(234,141)"/>
<path d="M0 0 C0.79921875 0.00902344 1.5984375 0.01804688 2.421875 0.02734375 C3.02515625 0.03894531 3.6284375 0.05054688 4.25 0.0625 C2.11155304 2.20094696 0.63559163 2.86032557 -2.14453125 3.97265625 C-3.01787109 4.32263672 -3.89121094 4.67261719 -4.79101562 5.03320312 C-5.70560547 5.39349609 -6.62019531 5.75378906 -7.5625 6.125 C-8.46548828 6.48916016 -9.36847656 6.85332031 -10.29882812 7.22851562 C-14.45138977 8.87916651 -18.3353831 10.28223985 -22.75 11.0625 C-20.60007363 6.74816964 -18.73776252 5.16186344 -14.3125 3.3125 C-13.36503906 2.90515625 -12.41757813 2.4978125 -11.44140625 2.078125 C-7.4613232 0.57620687 -4.25870624 -0.06262803 0 0 Z " fill="#184E73" transform="translate(148.75,183.9375)"/>
<path d="M0 0 C-3.18078106 2.65065088 -6.51842208 4.22218089 -10.29296875 5.83984375 C-12.50402678 7.34255367 -12.41362209 8.4760255 -13 11 C-13.99 11.33 -14.98 11.66 -16 12 C-16.33 11.34 -16.66 10.68 -17 10 C-17.721875 10.309375 -18.44375 10.61875 -19.1875 10.9375 C-21.80307309 11.92560539 -24.25118982 12.5287754 -27 13 C-25.80514323 9.41542968 -24.35872858 8.67477268 -21.12109375 6.91796875 C-17.54536739 5.37046287 -13.82567257 4.65929958 -10 4 C-10 3.34 -10 2.68 -10 2 C-6.49223216 0.39644899 -3.85645121 -0.22036864 0 0 Z M-30 13 C-29.01 13.33 -28.02 13.66 -27 14 C-27.99 14.66 -28.98 15.32 -30 16 C-30 15.01 -30 14.02 -30 13 Z " fill="#286C94" transform="translate(140,185)"/>
<path d="M0 0 C0.66 0.33 1.32 0.66 2 1 C-2.30769231 5.92307692 -2.30769231 5.92307692 -5.8125 6.3125 C-6.8953125 6.1578125 -6.8953125 6.1578125 -8 6 C-8 6.66 -8 7.32 -8 8 C-10.64 8.66 -13.28 9.32 -16 10 C-15.35838246 7.11272106 -14.6314173 5.43075502 -12.15625 3.7421875 C-10.1159045 2.68505197 -8.18930886 1.70240326 -6 1 C-5.34 1.33 -4.68 1.66 -4 2 C-3.34 2 -2.68 2 -2 2 C-1.34 1.34 -0.68 0.68 0 0 Z " fill="#3B89B6" transform="translate(144,176)"/>
<path d="M0 0 C-0.33 0.66 -0.66 1.32 -1 2 C-4.07722297 2.89454156 -7.18129179 3.5393369 -10.3125 4.21875 C-11.6428125 4.60546875 -11.6428125 4.60546875 -13 5 C-13.33 5.66 -13.66 6.32 -14 7 C-18.66289322 7.85486376 -22.37627754 8.30042194 -27 7 C-19.51964028 2.01309352 -8.94146219 -0.45853652 0 0 Z " fill="#1E5C82" transform="translate(172,177)"/>
<path d="M0 0 C1.8871875 0.0309375 1.8871875 0.0309375 3.8125 0.0625 C3.8125 1.0525 3.8125 2.0425 3.8125 3.0625 C0.41891656 3.90518087 -2.97769085 4.73497901 -6.375 5.5625 C-7.33470703 5.80097656 -8.29441406 6.03945312 -9.28320312 6.28515625 C-10.68022461 6.62353516 -10.68022461 6.62353516 -12.10546875 6.96875 C-12.95906982 7.17822266 -13.8126709 7.38769531 -14.69213867 7.60351562 C-17.24696307 8.07343734 -19.59594759 8.14367627 -22.1875 8.0625 C-19.02183427 5.95205618 -16.67552585 5.30697923 -13 4.4375 C-11.91332031 4.17710937 -10.82664063 3.91671875 -9.70703125 3.6484375 C-8.87558594 3.45507812 -8.04414063 3.26171875 -7.1875 3.0625 C-7.1875 2.4025 -7.1875 1.7425 -7.1875 1.0625 C-4.43671116 0.14557039 -2.82801087 -0.04636083 0 0 Z " fill="#14456B" transform="translate(178.1875,174.9375)"/>
<path d="M0 0 C1.24546405 2.49092811 0.7767578 3.41080733 0 6 C1.32 5.34 2.64 4.68 4 4 C3.06409496 5.1055189 2.12620142 6.20935453 1.1875 7.3125 C0.66542969 7.92738281 0.14335938 8.54226562 -0.39453125 9.17578125 C-1.87172469 10.85424679 -3.40039131 12.43882034 -5 14 C-5.99 13.67 -6.98 13.34 -8 13 C-6.53181332 9.89257577 -4.79975 7.09528261 -2.875 4.25 C-2.33617188 3.45078125 -1.79734375 2.6515625 -1.2421875 1.828125 C-0.62730469 0.92320312 -0.62730469 0.92320312 0 0 Z " fill="#0A1425" transform="translate(104,176)"/>
<path d="M0 0 C-2.76266464 2.01148021 -5.53639096 4.00712625 -8.3125 6 C-9.09818359 6.57234375 -9.88386719 7.1446875 -10.69335938 7.734375 C-11.8293457 8.54648438 -11.8293457 8.54648438 -12.98828125 9.375 C-14.03302612 10.12910156 -14.03302612 10.12910156 -15.09887695 10.8984375 C-17 12 -17 12 -20 12 C-17.85177953 8.7776693 -16.2725249 7.91562433 -13 6 C-12.443125 5.443125 -11.88625 4.88625 -11.3125 4.3125 C-10.879375 3.879375 -10.44625 3.44625 -10 3 C-9.34 3 -8.68 3 -8 3 C-8 2.34 -8 1.68 -8 1 C-2.25 -1.125 -2.25 -1.125 0 0 Z " fill="#134169" transform="translate(115,202)"/>
<path d="M0 0 C0.99 0.99 1.98 1.98 3 3 C1.26020369 4.511823 -0.49222816 6.00911498 -2.25 7.5 C-3.22453125 8.3353125 -4.1990625 9.170625 -5.203125 10.03125 C-8 12 -8 12 -12 12 C-11.67 11.01 -11.34 10.02 -11 9 C-10.21625 8.938125 -9.4325 8.87625 -8.625 8.8125 C-7.325625 8.4103125 -7.325625 8.4103125 -6 8 C-4.84478498 5.52869082 -4.84478498 5.52869082 -4 3 C-3.01 2.67 -2.02 2.34 -1 2 C-0.67 1.34 -0.34 0.68 0 0 Z " fill="#194B71" transform="translate(234,154)"/>
<path d="M0 0 C0 1.32 0 2.64 0 4 C-0.99 4.33 -1.98 4.66 -3 5 C-3.33 4.34 -3.66 3.68 -4 3 C-4.721875 3.309375 -5.44375 3.61875 -6.1875 3.9375 C-8.80307309 4.92560539 -11.25118982 5.5287754 -14 6 C-9.38373114 2.04319812 -6.15374666 0 0 0 Z M-17 6 C-16.01 6.33 -15.02 6.66 -14 7 C-14.99 7.66 -15.98 8.32 -17 9 C-17 8.01 -17 7.02 -17 6 Z " fill="#226086" transform="translate(127,192)"/>
<path d="M0 0 C0.66 0.33 1.32 0.66 2 1 C2.07654536 5.51617599 2.10228696 9.59085217 1 14 C0.01 14 -0.98 14 -2 14 C-1.03644647 4.58997722 -1.03644647 4.58997722 0 0 Z " fill="#112539" transform="translate(7,122)"/>
<path d="M0 0 C0.66 0.33 1.32 0.66 2 1 C1.34 1.433125 0.68 1.86625 0 2.3125 C-0.66 2.869375 -1.32 3.42625 -2 4 C-2 4.99 -2 5.98 -2 7 C-2.99 7.33 -3.98 7.66 -5 8 C-6.66710346 9.49985609 -6.66710346 9.49985609 -8 11 C-8.33 10.01 -8.66 9.02 -9 8 C-6.14723863 5.06799526 -3.34920216 2.35684596 0 0 Z " fill="#296F9A" transform="translate(116,173)"/>
<path d="M0 0 C1.39456452 0.00667256 2.78911118 0.01863093 4.18359375 0.03515625 C4.89451172 0.03966797 5.60542969 0.04417969 6.33789062 0.04882812 C8.09899388 0.06064761 9.86005411 0.07858362 11.62109375 0.09765625 C11.62109375 0.42765625 11.62109375 0.75765625 11.62109375 1.09765625 C10.57308594 1.18853516 10.57308594 1.18853516 9.50390625 1.28125 C8.59382813 1.36503906 7.68375 1.44882813 6.74609375 1.53515625 C5.84117187 1.61636719 4.93625 1.69757812 4.00390625 1.78125 C1.60998514 1.9675491 1.60998514 1.9675491 -0.37890625 3.09765625 C-3.05126835 3.23181097 -5.70141113 3.14084166 -8.37890625 3.09765625 C-8.70890625 2.43765625 -9.03890625 1.77765625 -9.37890625 1.09765625 C-8.17234375 1.12859375 -8.17234375 1.12859375 -6.94140625 1.16015625 C-3.63487189 1.07950907 -3.59768467 0.10397933 0 0 Z " fill="#F0F0F1" transform="translate(144.37890625,2.90234375)"/>
<path d="M0 0 C0.33 0.66 0.66 1.32 1 2 C0.09066991 3.27609323 -0.82782853 4.54565553 -1.75 5.8125 C-2.26046875 6.52019531 -2.7709375 7.22789062 -3.296875 7.95703125 C-5.02482358 10.02977691 -6.78526476 11.47375854 -9 13 C-9 12.01 -9 11.02 -9 10 C-8.34 10 -7.68 10 -7 10 C-6.9175 9.21625 -6.835 8.4325 -6.75 7.625 C-6 5 -6 5 -4.0625 3.875 C-3.381875 3.58625 -2.70125 3.2975 -2 3 C-1.34 2.01 -0.68 1.02 0 0 Z " fill="#113D63" transform="translate(245,143)"/>
<path d="M0 0 C1.98 0 3.96 0 6 0 C5.06725891 1.12894876 4.12859878 2.25300876 3.1875 3.375 C2.66542969 4.00148437 2.14335938 4.62796875 1.60546875 5.2734375 C0 7 0 7 -3 9 C-2.44271087 5.65626525 -1.64826111 2.96687001 0 0 Z " fill="#23668B" transform="translate(81,221)"/>
<path d="M0 0 C1 2 1 2 0.109375 5.15234375 C-0.33569421 6.41692663 -0.78919676 7.67856519 -1.25 8.9375 C-1.46785156 9.57107422 -1.68570313 10.20464844 -1.91015625 10.85742188 C-3.11384566 14.20452314 -4.18254615 16.75432355 -7 19 C-6.80664062 18.443125 -6.61328125 17.88625 -6.4140625 17.3125 C-5.08594985 13.42020947 -3.8573465 9.57303072 -2.9375 5.5625 C-2 2 -2 2 0 0 Z " fill="#183C63" transform="translate(253,124)"/>
<path d="M0 0 C-3.27792943 2.99289209 -6.82186917 4.06788649 -10.9765625 5.3515625 C-13.03815344 5.95535919 -13.03815344 5.95535919 -15 7 C-13.73721868 3.21165605 -12.47887048 2.77988722 -9 1 C-5.96102732 -0.04464686 -3.20065533 -0.08890709 0 0 Z " fill="#2E749E" transform="translate(130,188)"/>
<path d="M0 0 C0.66 0.33 1.32 0.66 2 1 C0.06891037 2.03290841 -1.870118 3.05098672 -3.8125 4.0625 C-4.89144531 4.63097656 -5.97039062 5.19945312 -7.08203125 5.78515625 C-10 7 -10 7 -13 6 C-10.58149856 2.67456052 -7.65684985 2.24000164 -3.83984375 1.4296875 C-1.91873605 1.05606754 -1.91873605 1.05606754 0 0 Z " fill="#0E3D64" transform="translate(223,165)"/>
<path d="M0 0 C0.66 0.33 1.32 0.66 2 1 C2 1.66 2 2.32 2 3 C0.73392393 3.53229326 -0.53810412 4.05044544 -1.8125 4.5625 C-2.52019531 4.85253906 -3.22789062 5.14257812 -3.95703125 5.44140625 C-6 6 -6 6 -9 5 C-3.375 1.125 -3.375 1.125 0 0 Z " fill="#4192C0" transform="translate(138,177)"/>
<path d="M0 0 C0.66 0.33 1.32 0.66 2 1 C1.67 3.64 1.34 6.28 1 9 C0.34 9 -0.32 9 -1 9 C-1 9.99 -1 10.98 -1 12 C-1.66 12 -2.32 12 -3 12 C-2.01 8.04 -1.02 4.08 0 0 Z " fill="#DEE3E5" transform="translate(289,189)"/>
<path d="M0 0 C1.08892712 2.83121051 0.96109941 4.16532751 0.25 7.1875 C-0.36875 8.5796875 -0.36875 8.5796875 -1 10 C-1.99 10.33 -2.98 10.66 -4 11 C-3.67 9.906875 -3.34 8.81375 -3 7.6875 C-1.86913351 4.15421116 -1.86913351 4.15421116 -2 1 C-1.34 0.67 -0.68 0.34 0 0 Z " fill="#EBEEEF" transform="translate(272,185)"/>
<path d="M0 0 C0 0.33 0 0.66 0 1 C-1.98 1 -3.96 1 -6 1 C-6 1.66 -6 2.32 -6 3 C-9.63 2.67 -13.26 2.34 -17 2 C-17 1.67 -17 1.34 -17 1 C-11.33357449 -0.22517308 -5.76291482 -0.09228867 0 0 Z " fill="#104C78" transform="translate(192,153)"/>
<path d="M0 0 C0 3.58912412 -0.66436554 4.10857029 -3 6.6875 C-3.556875 7.31011719 -4.11375 7.93273437 -4.6875 8.57421875 C-5.120625 9.04472656 -5.55375 9.51523438 -6 10 C-7.32 9.67 -8.64 9.34 -10 9 C-6.7 6.03 -3.4 3.06 0 0 Z " fill="#0E4A77" transform="translate(249,129)"/>
<path d="M0 0 C0.66 0.33 1.32 0.66 2 1 C0.58833114 1.98635837 -0.82956184 2.96381255 -2.25 3.9375 C-3.43335937 4.75541016 -3.43335937 4.75541016 -4.640625 5.58984375 C-6.82636993 6.89622441 -8.5153801 7.54980511 -11 8 C-7.6378363 4.34117479 -4.63949148 1.85579659 0 0 Z " fill="#4FB4E3" transform="translate(124,170)"/>
<path d="M0 0 C0.33 0 0.66 0 1 0 C1.33 3.3 1.66 6.6 2 10 C1.01 10.495 1.01 10.495 0 11 C-1.125 3.375 -1.125 3.375 0 0 Z " fill="#EDEEEF" transform="translate(6,179)"/>
<path d="M0 0 C-5.17578125 3.22265625 -5.17578125 3.22265625 -7 4 C-7.99 3.67 -8.98 3.34 -10 3 C-7.30922307 -0.25725628 -4.0224365 -2.01121825 0 0 Z " fill="#184267" transform="translate(136,191)"/>
<path d="M0 0 C0.99 0.33 1.98 0.66 3 1 C-1.75 5.875 -1.75 5.875 -4 7 C-3.39816251 4.97954558 -2.72693904 2.97888961 -2 1 C-1.34 0.67 -0.68 0.34 0 0 Z " fill="#E2E7EA" transform="translate(106,177)"/>
<path d="M0 0 C0.99 0.99 1.98 1.98 3 3 C-0.625 6 -0.625 6 -4 6 C-3.0022242 3.00667261 -2.2477975 2.05233685 0 0 Z " fill="#205579" transform="translate(234,154)"/>
<path d="M0 0 C0.66 0.33 1.32 0.66 2 1 C2 3.31 2 5.62 2 8 C1.01 8 0.02 8 -1 8 C-1.04241723 5.66705225 -1.04092937 3.33297433 -1 1 C-0.67 0.67 -0.34 0.34 0 0 Z " fill="#F0F1F1" transform="translate(295,151)"/>
<path d="M0 0 C0.66 0.99 1.32 1.98 2 3 C0.7260411 5.03833424 -0.61061923 7.03852126 -2 9 C-2.66 9 -3.32 9 -4 9 C-2.80100302 5.9168649 -1.52299523 2.93720508 0 0 Z " fill="#256991" transform="translate(91,202)"/>
<path d="M0 0 C-0.99 1.485 -0.99 1.485 -2 3 C-4.625 3.1875 -4.625 3.1875 -7 3 C-7.33 2.34 -7.66 1.68 -8 1 C-5.29120665 -0.35439668 -2.99066732 -0.06501451 0 0 Z " fill="#E9ECED" transform="translate(141,23)"/>
<path d="M0 0 C2.64 0.33 5.28 0.66 8 1 C4.5647952 3.29013653 3.014669 3.17842973 -1 3 C-0.67 2.01 -0.34 1.02 0 0 Z " fill="#0B3A62" transform="translate(195,172)"/>
<path d="M0 0 C0.66 0 1.32 0 2 0 C5.22265625 5.2734375 5.22265625 5.2734375 6 7 C5.67 7.66 5.34 8.32 5 9 C4.67 8.01 4.34 7.02 4 6 C3.01 5.67 2.02 5.34 1 5 C0.67 3.35 0.34 1.7 0 0 Z " fill="#061224" transform="translate(191,114)"/>
<path d="M0 0 C0.66 0.66 1.32 1.32 2 2 C1.65071808 5.60924648 0.72887752 6.27112248 -2 9 C-1.34 6.03 -0.68 3.06 0 0 Z " fill="#E5E8EA" transform="translate(28,109)"/>
</svg>
